<?xml version='1.0' encoding='UTF-8' standalone='no'?>
<svg height="432pt" viewBox="0 0 576 432" xmlns:xlink="http://www.w3.org/1999/xlink" width="576pt" xmlns="http://www.w3.org/2000/svg">
 <title>gl2ps_renderer figure</title>
 <desc>
Creator: GL2PS 1.4.0, (C) 1999-2017 C. Geuzaine
For: Octave
CreationDate: Mon May 23 16:17:47 2022
</desc>
 <defs/>
 <polygon fill="#ffffff" points="0,0 576,0 576,432 0,432"/>
 <g>
  <polygon fill="#ffffff" points="0,432 576,432 576,0 0,0" shape-rendering="crispEdges"/>
  <clipPath id="cp00576432">
   <polygon points="0,432 576,432 576,0 0,0"/>
  </clipPath>
  <g clip-path="url(#cp00576432)">
   <polygon fill="#ffffff" points="74.8799,384.48 521.28,384.48 521.28,32.3999 74.8799,32.3999" shape-rendering="crispEdges"/>
   <polyline stroke-linejoin="miter" fill="none" stroke-linecap="butt" stroke-width="0.5" stroke="#262626" points="74.8799,384.48 74.8799,380.015"/>
   <polyline stroke-linejoin="miter" fill="none" stroke-linecap="butt" stroke-width="0.5" stroke="#262626" points="74.8799,32.3999 74.8799,36.8652"/>
   <polyline stroke-linejoin="miter" fill="none" stroke-linecap="butt" stroke-width="0.5" stroke="#262626" points="164.16,384.48 164.16,380.015"/>
   <polyline stroke-linejoin="miter" fill="none" stroke-linecap="butt" stroke-width="0.5" stroke="#262626" points="164.16,32.3999 164.16,36.8652"/>
   <polyline stroke-linejoin="miter" fill="none" stroke-linecap="butt" stroke-width="0.5" stroke="#262626" points="253.44,384.48 253.44,380.015"/>
   <polyline stroke-linejoin="miter" fill="none" stroke-linecap="butt" stroke-width="0.5" stroke="#262626" points="253.44,32.3999 253.44,36.8652"/>
   <polyline stroke-linejoin="miter" fill="none" stroke-linecap="butt" stroke-width="0.5" stroke="#262626" points="342.72,384.48 342.72,380.015"/>
   <polyline stroke-linejoin="miter" fill="none" stroke-linecap="butt" stroke-width="0.5" stroke="#262626" points="342.72,32.3999 342.72,36.8652"/>
   <polyline stroke-linejoin="miter" fill="none" stroke-linecap="butt" stroke-width="0.5" stroke="#262626" points="432,384.48 432,380.015"/>
   <polyline stroke-linejoin="miter" fill="none" stroke-linecap="butt" stroke-width="0.5" stroke="#262626" points="432,32.3999 432,36.8652"/>
   <polyline stroke-linejoin="miter" fill="none" stroke-linecap="butt" stroke-width="0.5" stroke="#262626" points="521.28,384.48 521.28,380.015"/>
   <polyline stroke-linejoin="miter" fill="none" stroke-linecap="butt" stroke-width="0.5" stroke="#262626" points="521.28,32.3999 521.28,36.8652"/>
   <text xml:space="preserve" font-size="10" font-family="FreeSans" font-weight="normal" transform="translate(71.88,399.982) rotate(-0,3,-8)" font-style="normal">
    <tspan x="0 " y="-0" fill="rgb(38,38,38)">0</tspan>
   </text>
   <text xml:space="preserve" font-size="10" font-family="FreeSans" font-weight="normal" transform="translate(161.16,399.982) rotate(-0,3,-8)" font-style="normal">
    <tspan x="0 " y="-0" fill="rgb(38,38,38)">2</tspan>
   </text>
   <text xml:space="preserve" font-size="10" font-family="FreeSans" font-weight="normal" transform="translate(250.44,399.982) rotate(-0,3,-8)" font-style="normal">
    <tspan x="0 " y="-0" fill="rgb(38,38,38)">4</tspan>
   </text>
   <text xml:space="preserve" font-size="10" font-family="FreeSans" font-weight="normal" transform="translate(339.72,399.982) rotate(-0,3,-8)" font-style="normal">
    <tspan x="0 " y="-0" fill="rgb(38,38,38)">6</tspan>
   </text>
   <text xml:space="preserve" font-size="10" font-family="FreeSans" font-weight="normal" transform="translate(429,399.982) rotate(-0,3,-8)" font-style="normal">
    <tspan x="0 " y="-0" fill="rgb(38,38,38)">8</tspan>
   </text>
   <text xml:space="preserve" font-size="10" font-family="FreeSans" font-weight="normal" transform="translate(515.28,399.982) rotate(-0,6,-8)" font-style="normal">
    <tspan x="0 6 " y="-0" fill="rgb(38,38,38)">10</tspan>
   </text>
   <polyline stroke-linejoin="miter" fill="none" stroke-linecap="butt" stroke-width="0.5" stroke="#262626" points="74.8799,384.48 79.3481,384.48"/>
   <polyline stroke-linejoin="miter" fill="none" stroke-linecap="butt" stroke-width="0.5" stroke="#262626" points="521.28,384.48 516.812,384.48"/>
   <polyline stroke-linejoin="miter" fill="none" stroke-linecap="butt" stroke-width="0.5" stroke="#262626" points="74.8799,296.46 79.3481,296.46"/>
   <polyline stroke-linejoin="miter" fill="none" stroke-linecap="butt" stroke-width="0.5" stroke="#262626" points="521.28,296.46 516.812,296.46"/>
   <polyline stroke-linejoin="miter" fill="none" stroke-linecap="butt" stroke-width="0.5" stroke="#262626" points="74.8799,208.44 79.3481,208.44"/>
   <polyline stroke-linejoin="miter" fill="none" stroke-linecap="butt" stroke-width="0.5" stroke="#262626" points="521.28,208.44 516.812,208.44"/>
   <polyline stroke-linejoin="miter" fill="none" stroke-linecap="butt" stroke-width="0.5" stroke="#262626" points="74.8799,120.42 79.3481,120.42"/>
   <polyline stroke-linejoin="miter" fill="none" stroke-linecap="butt" stroke-width="0.5" stroke="#262626" points="521.28,120.42 516.812,120.42"/>
   <polyline stroke-linejoin="miter" fill="none" stroke-linecap="butt" stroke-width="0.5" stroke="#262626" points="74.8799,32.3999 79.3481,32.3999"/>
   <polyline stroke-linejoin="miter" fill="none" stroke-linecap="butt" stroke-width="0.5" stroke="#262626" points="521.28,32.3999 516.812,32.3999"/>
   <text xml:space="preserve" font-size="10" font-family="FreeSans" font-weight="normal" transform="translate(51.8755,388.48) rotate(-0,18,-4)" font-style="normal">
    <tspan x="0 3 9 12 " y="-0" fill="rgb(38,38,38)">-0.5</tspan>
   </text>
   <text xml:space="preserve" font-size="10" font-family="FreeSans" font-weight="normal" transform="translate(63.8755,300.46) rotate(-0,6,-4)" font-style="normal">
    <tspan x="0 " y="-0" fill="rgb(38,38,38)">0</tspan>
   </text>
   <text xml:space="preserve" font-size="10" font-family="FreeSans" font-weight="normal" transform="translate(54.8755,212.44) rotate(-0,15,-4)" font-style="normal">
    <tspan x="0 6 9 " y="-0" fill="rgb(38,38,38)">0.5</tspan>
   </text>
   <text xml:space="preserve" font-size="10" font-family="FreeSans" font-weight="normal" transform="translate(63.8755,124.42) rotate(-0,6,-4)" font-style="normal">
    <tspan x="0 " y="-0" fill="rgb(38,38,38)">1</tspan>
   </text>
   <text xml:space="preserve" font-size="10" font-family="FreeSans" font-weight="normal" transform="translate(54.8755,36.4) rotate(-0,15,-4)" font-style="normal">
    <tspan x="0 6 9 " y="-0" fill="rgb(38,38,38)">1.5</tspan>
   </text>
   <polyline stroke-linejoin="miter" fill="none" stroke-linecap="square" stroke-dasharray="16,0" stroke-width="0.5" stroke="#262626" points="74.8799,384.48 521.28,384.48"/>
   <polyline stroke-linejoin="miter" fill="none" stroke-linecap="square" stroke-dasharray="16,0" stroke-width="0.5" stroke="#262626" points="74.8799,32.3999 521.28,32.3999"/>
   <polyline stroke-linejoin="miter" fill="none" stroke-linecap="square" stroke-dasharray="16,0" stroke-width="0.5" stroke="#262626" points="74.8799,384.48 74.8799,32.3999"/>
   <polyline stroke-linejoin="miter" fill="none" stroke-linecap="square" stroke-dasharray="16,0" stroke-width="0.5" stroke="#262626" points="521.28,384.48 521.28,32.3999"/>
   <polyline stroke-linejoin="round" fill="none" stroke-linecap="butt" stroke-width="0.5" stroke="#ff0000" points="74.8799,120.42 75.3267,120.42 75.7734,120.42 76.2207,120.42 76.6675,120.42 77.1143,120.42 77.561,120.42 78.0078,120.42 78.4546,120.42 78.9014,120.42 79.3486,120.42 79.7954,120.42 80.2422,120.42 80.689,120.42 81.1357,120.42 81.5825,120.42 82.0293,120.42 82.4766,120.42 82.9233,120.42 83.3701,120.42 83.8169,120.42 84.2637,120.42 84.7104,120.42 85.1572,120.42 85.6045,120.42 86.0513,120.42 86.498,120.42 86.9448,120.42 87.3916,120.42 87.8384,120.42 88.2856,120.42 88.7324,120.42 89.1792,120.42 89.626,120.42 90.0728,120.42 90.5195,120.42 90.9663,120.42 91.4131,120.42 91.8604,120.42 92.3071,120.42 92.7539,120.42 93.2007,120.42 93.6475,120.42 94.0942,120.42 94.541,120.42 94.9883,120.42 95.4351,120.42 95.8818,120.42 96.3286,120.42 96.7754,120.42 97.2222,120.42 97.6689,120.42 98.1162,120.42 98.563,120.42 99.0098,120.42 99.4565,120.42 99.9033,120.42 100.35,120.42 100.797,120.42 101.244,120.42 101.691,120.42 102.138,120.42 102.584,120.42 103.031,120.42 103.478,120.42 103.925,120.42 104.372,120.42 104.819,120.42 105.266,120.42 105.712,120.42 106.159,120.42 106.606,120.42 107.053,120.42 107.5,120.42 107.947,120.42 108.394,120.42 108.84,120.42 109.287,120.42 109.734,120.42 110.181,120.42 110.628,120.42 111.075,120.42 111.521,120.42 111.968,120.42 112.415,120.42 112.862,120.42 113.309,120.42 113.756,120.42 114.203,120.42 114.649,120.42 115.096,120.42 115.543,120.42 115.99,120.42 116.437,120.42 116.884,120.42 117.331,120.42 117.777,120.42 118.224,120.42 118.671,120.42 119.118,120.42 119.564,120.42 120.012,120.42 120.458,120.42 120.905,120.42 121.352,120.42 121.799,120.42 122.246,120.42 122.692,120.42 123.14,120.42 123.586,120.42 124.033,120.42 124.48,120.42 124.927,120.42 125.374,120.42 125.82,120.42 126.268,120.42 126.714,120.42 127.161,120.42 127.608,120.42 128.055,120.42 128.501,120.42 128.948,120.42 129.396,120.42 129.842,120.42 130.289,120.42 130.736,120.42 131.183,120.42 131.629,120.42 132.076,120.42 132.523,120.42 132.97,120.42 133.417,120.42 133.864,120.42 134.311,120.42 134.757,120.42 135.204,120.42 135.651,120.42 136.098,120.42 136.545,120.42 136.992,120.42 137.438,120.42 137.885,120.42 138.332,120.42 138.779,120.42 139.226,120.42 139.673,120.42 140.12,120.42 140.566,120.42 141.013,120.42 141.46,120.42 141.907,296.46 142.354,296.46 142.801,296.46 143.248,296.46 143.694,296.46 144.141,296.46 144.588,296.46 145.035,296.46 145.482,296.46 145.929,296.46 146.375,296.46 146.822,296.46 147.269,296.46 147.716,296.46 148.163,296.46 148.61,296.46 149.057,296.46 149.503,296.46 149.95,296.46 150.397,296.46 150.844,296.46 151.291,296.46 151.738,296.46 152.185,296.46 152.631,296.46 153.078,296.46 153.525,296.46 153.972,296.46 154.419,296.46 154.866,296.46 155.312,296.46 155.759,296.46 156.206,296.46 156.653,296.46 157.1,296.46 157.547,296.46 157.994,296.46 158.44,296.46 158.887,296.46 159.334,296.46 159.781,296.46 160.228,296.46 160.675,296.46 161.122,296.46 161.568,296.46 162.015,296.46 162.462,296.46 162.909,296.46 163.355,296.46 163.803,296.46 164.25,296.46 164.696,296.46 165.143,296.46 165.59,296.46 166.037,296.46 166.483,296.46 166.931,296.46 167.377,296.46 167.824,296.46 168.271,296.46 168.718,296.46 169.165,296.46 169.611,296.46 170.059,296.46 170.505,296.46 170.952,296.46 171.399,296.46 171.846,296.46 172.292,296.46 172.739,296.46 173.187,296.46 173.633,296.46 174.08,296.46 174.527,296.46 174.974,296.46 175.42,296.46 175.867,296.46 176.314,296.46 176.761,296.46 177.208,296.46 177.655,296.46 178.102,296.46 178.548,296.46 178.995,296.46 179.442,296.46 179.889,296.46 180.336,296.46 180.783,296.46 181.229,296.46 181.676,296.46 182.123,296.46 182.57,296.46 183.017,296.46 183.464,296.46 183.911,296.46 184.357,296.46 184.804,296.46 185.251,296.46 185.698,296.46 186.145,296.46 186.592,296.46 187.039,296.46 187.485,296.46 187.932,296.46 188.379,296.46 188.826,296.46 189.273,296.46 189.72,296.46 190.167,296.46 190.613,296.46 191.06,296.46 191.507,296.46 191.954,296.46 192.401,296.46 192.848,296.46 193.294,296.46 193.741,296.46 194.188,296.46 194.635,296.46 195.082,296.46 195.529,296.46 195.976,296.46 196.422,296.46 196.869,296.46 197.316,296.46 197.763,296.46 198.21,296.46 198.657,296.46 199.104,296.46 199.55,296.46 199.997,296.46 200.444,296.46 200.891,296.46 201.338,296.46 201.785,296.46 202.231,296.46 202.678,296.46 203.125,296.46 203.572,296.46 204.019,296.46 204.466,296.46 204.913,296.46 205.359,296.46 205.806,296.46 206.253,296.46 206.7,296.46 207.146,296.46 207.594,296.46 208.041,296.46 208.487,296.46 208.934,296.46 209.381,296.46 209.828,296.46 210.274,296.46 210.722,296.46 211.168,296.46 211.615,296.46 212.062,296.46 212.509,296.46 212.956,296.46 213.402,296.46 213.85,296.46 214.296,296.46 214.743,296.46 215.19,296.46 215.637,296.46 216.083,296.46 216.53,296.46 216.978,296.46 217.424,296.46 217.871,296.46 218.318,296.46 218.765,296.46 219.211,296.46 219.658,296.46 220.105,296.46 220.552,296.46 220.999,296.46 221.446,296.46 221.893,296.46 222.339,296.46 222.786,296.46 223.233,296.46 223.68,296.46 224.127,296.46 224.574,296.46 225.021,296.46 225.467,296.46 225.914,296.46 226.361,296.46 226.808,296.46 227.255,296.46 227.702,296.46 228.148,296.46 228.595,296.46 229.042,296.46 229.489,296.46 229.936,296.46 230.383,296.46 230.83,296.46 231.276,296.46 231.723,296.46 232.17,296.46 232.617,296.46 233.064,296.46 233.511,296.46 233.958,296.46 234.404,296.46 234.851,296.46 235.298,296.46 235.745,296.46 236.192,296.46 236.639,296.46 237.085,296.46 237.532,296.46 237.979,296.46 238.426,296.46 238.873,296.46 239.32,296.46 239.767,296.46 240.213,296.46 240.66,296.46 241.107,296.46 241.554,296.46 242,296.46 242.448,296.46 242.895,296.46 243.341,296.46 243.788,296.46 244.235,296.46 244.682,296.46 245.128,296.46 245.576,296.46 246.022,296.46 246.469,296.46 246.916,296.46 247.363,296.46 247.81,296.46 248.256,296.46 248.704,296.46 249.15,296.46 249.597,296.46 250.044,296.46 250.491,296.46 250.938,296.46 251.384,296.46 251.832,296.46 252.278,296.46 252.725,296.46 253.172,296.46 253.619,296.46 254.065,296.46 254.512,296.46 254.959,296.46 255.406,296.46 255.853,296.46 256.3,296.46 256.747,296.46 257.193,296.46 257.64,296.46 258.087,296.46 258.534,296.46 258.981,296.46 259.428,296.46 259.875,296.46 260.321,296.46 260.768,296.46 261.215,296.46 261.662,296.46 262.109,296.46 262.556,296.46 263.002,296.46 263.449,296.46 263.896,296.46 264.343,296.46 264.79,296.46 265.237,296.46 265.684,296.46 266.13,296.46 266.577,296.46 267.024,296.46 267.471,296.46 267.918,296.46 268.365,296.46 268.812,296.46 269.258,296.46 269.705,296.46 270.152,296.46 270.599,296.46 271.046,296.46 271.493,296.46 271.939,296.46 272.386,296.46 272.833,296.46 273.28,296.46 273.727,296.46 274.174,296.46 274.621,296.46 275.067,296.46 275.514,296.46 275.961,120.42 276.408,120.42 276.855,120.42 277.302,120.42 277.749,120.42 278.195,120.42 278.642,120.42 279.089,120.42 279.536,120.42 279.983,120.42 280.43,120.42 280.876,120.42 281.323,120.42 281.77,120.42 282.217,120.42 282.664,120.42 283.111,120.42 283.558,120.42 284.004,120.42 284.451,120.42 284.898,120.42 285.345,120.42 285.792,120.42 286.239,120.42 286.686,120.42 287.132,120.42 287.579,120.42 288.026,120.42 288.473,120.42 288.919,120.42 289.367,120.42 289.813,120.42 290.26,120.42 290.707,120.42 291.154,120.42 291.601,120.42 292.047,120.42 292.495,120.42 292.941,120.42 293.388,120.42 293.835,120.42 294.282,120.42 294.729,120.42 295.175,120.42 295.623,120.42 296.069,120.42 296.516,120.42 296.963,120.42 297.41,120.42 297.856,120.42 298.303,120.42 298.75,120.42 299.197,120.42 299.644,120.42 300.091,120.42 300.538,120.42 300.984,120.42 301.431,120.42 301.878,120.42 302.325,120.42 302.772,120.42 303.219,120.42 303.666,120.42 304.112,120.42 304.559,120.42 305.006,120.42 305.453,120.42 305.9,120.42 306.347,120.42 306.793,120.42 307.24,120.42 307.687,120.42 308.134,120.42 308.581,120.42 309.028,120.42 309.475,120.42 309.921,120.42 310.368,120.42 310.815,120.42 311.262,120.42 311.709,120.42 312.156,120.42 312.603,120.42 313.049,120.42 313.496,120.42 313.943,120.42 314.39,120.42 314.837,120.42 315.284,120.42 315.73,120.42 316.177,120.42 316.624,120.42 317.071,120.42 317.518,120.42 317.965,120.42 318.412,120.42 318.858,120.42 319.305,120.42 319.752,120.42 320.199,120.42 320.646,296.46 321.093,296.46 321.54,296.46 321.986,296.46 322.433,296.46 322.88,296.46 323.327,296.46 323.773,296.46 324.221,296.46 324.667,296.46 325.114,296.46 325.561,296.46 326.008,296.46 326.455,296.46 326.902,296.46 327.349,296.46 327.795,296.46 328.242,296.46 328.689,296.46 329.136,296.46 329.583,296.46 330.03,296.46 330.477,296.46 330.923,296.46 331.37,296.46 331.817,296.46 332.264,296.46 332.71,296.46 333.157,296.46 333.604,296.46 334.051,296.46 334.498,296.46 334.945,296.46 335.392,296.46 335.838,296.46 336.286,296.46 336.732,296.46 337.179,296.46 337.626,296.46 338.073,296.46 338.52,296.46 338.966,296.46 339.413,296.46 339.86,296.46 340.307,296.46 340.754,296.46 341.201,296.46 341.647,296.46 342.094,296.46 342.542,296.46 342.988,296.46 343.435,296.46 343.882,296.46 344.329,296.46 344.775,296.46 345.222,296.46 345.669,296.46 346.116,296.46 346.563,296.46 347.01,296.46 347.457,296.46 347.903,296.46 348.35,296.46 348.797,296.46 349.244,296.46 349.691,296.46 350.138,296.46 350.584,296.46 351.031,296.46 351.478,296.46 351.925,296.46 352.372,296.46 352.819,296.46 353.266,296.46 353.712,296.46 354.159,296.46 354.606,296.46 355.053,296.46 355.5,296.46 355.947,296.46 356.394,296.46 356.84,296.46 357.287,296.46 357.734,296.46 358.181,296.46 358.628,296.46 359.075,296.46 359.521,296.46 359.968,296.46 360.415,296.46 360.862,296.46 361.309,296.46 361.756,296.46 362.203,296.46 362.649,296.46 363.096,296.46 363.543,296.46 363.99,296.46 364.437,296.46 364.884,296.46 365.331,120.42 365.777,120.42 366.224,120.42 366.671,120.42 367.118,120.42 367.565,120.42 368.012,120.42 368.458,120.42 368.905,120.42 369.352,120.42 369.799,120.42 370.246,120.42 370.692,120.42 371.14,120.42 371.586,120.42 372.033,120.42 372.48,120.42 372.927,120.42 373.374,120.42 373.82,120.42 374.268,120.42 374.714,120.42 375.161,120.42 375.608,120.42 376.055,120.42 376.501,120.42 376.948,120.42 377.396,120.42 377.842,120.42 378.289,120.42 378.736,120.42 379.183,120.42 379.629,120.42 380.076,120.42 380.523,120.42 380.97,120.42 381.417,120.42 381.864,120.42 382.311,120.42 382.757,120.42 383.204,120.42 383.651,120.42 384.098,120.42 384.545,120.42 384.992,120.42 385.438,120.42 385.885,120.42 386.332,120.42 386.779,120.42 387.226,120.42 387.673,120.42 388.12,120.42 388.566,120.42 389.013,120.42 389.46,120.42 389.907,120.42 390.354,120.42 390.801,120.42 391.248,120.42 391.694,120.42 392.141,120.42 392.588,120.42 393.035,120.42 393.482,120.42 393.929,120.42 394.375,120.42 394.822,120.42 395.269,120.42 395.716,120.42 396.163,120.42 396.61,120.42 397.057,120.42 397.503,120.42 397.95,120.42 398.397,120.42 398.844,120.42 399.291,120.42 399.738,120.42 400.185,120.42 400.631,120.42 401.078,120.42 401.525,120.42 401.972,120.42 402.419,120.42 402.866,120.42 403.312,120.42 403.759,120.42 404.206,120.42 404.653,120.42 405.1,120.42 405.547,120.42 405.994,120.42 406.44,120.42 406.887,120.42 407.334,120.42 407.781,120.42 408.228,120.42 408.675,120.42 409.122,120.42 409.568,120.42 410.015,296.46 410.462,296.46 410.909,296.46 411.355,296.46 411.803,296.46 412.25,296.46 412.696,296.46 413.143,296.46 413.59,296.46 414.037,296.46 414.483,296.46 414.931,296.46 415.377,296.46 415.824,296.46 416.271,296.46 416.718,296.46 417.165,296.46 417.611,296.46 418.059,296.46 418.505,296.46 418.952,296.46 419.399,296.46 419.846,296.46 420.292,296.46 420.739,296.46 421.187,296.46 421.633,296.46 422.08,296.46 422.527,296.46 422.974,296.46 423.42,296.46 423.867,296.46 424.314,296.46 424.761,296.46 425.208,296.46 425.655,296.46 426.102,296.46 426.548,296.46 426.995,296.46 427.442,296.46 427.889,296.46 428.336,296.46 428.783,296.46 429.229,296.46 429.676,296.46 430.123,296.46 430.57,296.46 431.017,296.46 431.464,296.46 431.911,296.46 432.357,296.46 432.804,296.46 433.251,296.46 433.698,296.46 434.145,296.46 434.592,296.46 435.039,296.46 435.485,296.46 435.932,296.46 436.379,296.46 436.826,296.46 437.273,296.46 437.72,296.46 438.167,296.46 438.613,296.46 439.06,296.46 439.507,296.46 439.954,296.46 440.401,296.46 440.848,296.46 441.294,296.46 441.741,296.46 442.188,296.46 442.635,296.46 443.082,296.46 443.529,296.46 443.976,296.46 444.422,296.46 444.869,296.46 445.316,296.46 445.763,296.46 446.21,296.46 446.657,296.46 447.104,296.46 447.55,296.46 447.997,296.46 448.444,296.46 448.891,296.46 449.338,296.46 449.785,296.46 450.231,296.46 450.678,296.46 451.125,296.46 451.572,296.46 452.019,296.46 452.466,296.46 452.913,296.46 453.359,296.46 453.806,296.46 454.253,296.46 454.7,120.42 455.146,120.42 455.593,120.42 456.041,120.42 456.487,120.42 456.934,120.42 457.381,120.42 457.828,120.42 458.274,120.42 458.722,120.42 459.168,120.42 459.615,120.42 460.062,120.42 460.509,120.42 460.956,120.42 461.402,120.42 461.85,120.42 462.296,120.42 462.743,120.42 463.19,120.42 463.637,120.42 464.083,120.42 464.53,120.42 464.978,120.42 465.424,120.42 465.871,120.42 466.318,120.42 466.765,120.42 467.211,120.42 467.658,120.42 468.105,120.42 468.552,120.42 468.999,120.42 469.446,120.42 469.893,120.42 470.339,120.42 470.786,120.42 471.233,120.42 471.68,120.42 472.127,120.42 472.574,120.42 473.021,120.42 473.467,120.42 473.914,120.42 474.361,120.42 474.808,120.42 475.255,120.42 475.702,120.42 476.148,120.42 476.595,120.42 477.042,120.42 477.489,120.42 477.936,120.42 478.383,120.42 478.83,120.42 479.276,120.42 479.723,120.42 480.17,120.42 480.617,120.42 481.064,120.42 481.511,120.42 481.958,120.42 482.404,120.42 482.851,120.42 483.298,120.42 483.745,120.42 484.192,120.42 484.639,120.42 485.085,120.42 485.532,120.42 485.979,120.42 486.426,120.42 486.873,120.42 487.32,120.42 487.767,120.42 488.213,120.42 488.66,120.42 489.107,120.42 489.554,120.42 490,120.42 490.448,120.42 490.895,120.42 491.341,120.42 491.788,120.42 492.235,120.42 492.682,120.42 493.128,120.42 493.576,120.42 494.022,120.42 494.469,120.42 494.916,120.42 495.363,120.42 495.81,120.42 496.257,120.42 496.704,120.42 497.15,120.42 497.597,120.42 498.044,120.42 498.491,120.42 498.938,120.42 499.384,296.46 499.832,296.46 500.278,296.46 500.725,296.46 501.172,296.46 501.619,296.46 502.065,296.46 502.512,296.46 502.959,296.46 503.406,296.46 503.853,296.46 504.3,296.46 504.747,296.46 505.193,296.46 505.64,296.46 506.087,296.46 506.534,296.46 506.981,296.46 507.428,296.46 507.875,296.46 508.321,296.46 508.769,296.46 509.215,296.46 509.662,296.46 510.109,296.46 510.556,296.46 511.002,296.46 511.449,296.46 511.896,296.46 512.343,296.46 512.79,296.46 513.237,296.46 513.684,296.46 514.13,296.46 514.577,296.46 515.024,296.46 515.471,296.46 515.918,296.46 516.365,296.46 516.812,296.46 517.258,296.46 517.705,296.46 518.152,296.46 518.599,296.46 519.046,296.46 519.493,296.46 519.939,296.46 520.386,296.46 520.833,296.46 521.28,296.46"/>
   <polyline stroke-linejoin="miter" fill="none" stroke-linecap="square" stroke-width="0.5" stroke="#ff0000" points="71.8799,117.42 77.8799,123.42"/>
   <polyline stroke-linejoin="miter" fill="none" stroke-linecap="square" stroke-width="0.5" stroke="#ff0000" points="71.8799,123.42 77.8799,117.42"/>
   <polyline stroke-linejoin="miter" fill="none" stroke-linecap="square" stroke-width="0.5" stroke="#ff0000" points="80.8081,117.42 86.8081,123.42"/>
   <polyline stroke-linejoin="miter" fill="none" stroke-linecap="square" stroke-width="0.5" stroke="#ff0000" points="80.8081,123.42 86.8081,117.42"/>
   <polyline stroke-linejoin="miter" fill="none" stroke-linecap="square" stroke-width="0.5" stroke="#ff0000" points="89.7358,117.42 95.7358,123.42"/>
   <polyline stroke-linejoin="miter" fill="none" stroke-linecap="square" stroke-width="0.5" stroke="#ff0000" points="89.7358,123.42 95.7358,117.42"/>
   <polyline stroke-linejoin="miter" fill="none" stroke-linecap="square" stroke-width="0.5" stroke="#ff0000" points="98.6641,117.42 104.664,123.42"/>
   <polyline stroke-linejoin="miter" fill="none" stroke-linecap="square" stroke-width="0.5" stroke="#ff0000" points="98.6641,123.42 104.664,117.42"/>
   <polyline stroke-linejoin="miter" fill="none" stroke-linecap="square" stroke-width="0.5" stroke="#ff0000" points="107.592,117.42 113.592,123.42"/>
   <polyline stroke-linejoin="miter" fill="none" stroke-linecap="square" stroke-width="0.5" stroke="#ff0000" points="107.592,123.42 113.592,117.42"/>
   <polyline stroke-linejoin="miter" fill="none" stroke-linecap="square" stroke-width="0.5" stroke="#ff0000" points="116.52,117.42 122.52,123.42"/>
   <polyline stroke-linejoin="miter" fill="none" stroke-linecap="square" stroke-width="0.5" stroke="#ff0000" points="116.52,123.42 122.52,117.42"/>
   <polyline stroke-linejoin="miter" fill="none" stroke-linecap="square" stroke-width="0.5" stroke="#ff0000" points="125.448,117.42 131.448,123.42"/>
   <polyline stroke-linejoin="miter" fill="none" stroke-linecap="square" stroke-width="0.5" stroke="#ff0000" points="125.448,123.42 131.448,117.42"/>
   <polyline stroke-linejoin="miter" fill="none" stroke-linecap="square" stroke-width="0.5" stroke="#ff0000" points="134.376,117.42 140.376,123.42"/>
   <polyline stroke-linejoin="miter" fill="none" stroke-linecap="square" stroke-width="0.5" stroke="#ff0000" points="134.376,123.42 140.376,117.42"/>
   <polyline stroke-linejoin="miter" fill="none" stroke-linecap="square" stroke-width="0.5" stroke="#ff0000" points="143.304,293.46 149.304,299.46"/>
   <polyline stroke-linejoin="miter" fill="none" stroke-linecap="square" stroke-width="0.5" stroke="#ff0000" points="143.304,299.46 149.304,293.46"/>
   <polyline stroke-linejoin="miter" fill="none" stroke-linecap="square" stroke-width="0.5" stroke="#ff0000" points="152.232,293.46 158.232,299.46"/>
   <polyline stroke-linejoin="miter" fill="none" stroke-linecap="square" stroke-width="0.5" stroke="#ff0000" points="152.232,299.46 158.232,293.46"/>
   <polyline stroke-linejoin="miter" fill="none" stroke-linecap="square" stroke-width="0.5" stroke="#ff0000" points="161.16,293.46 167.16,299.46"/>
   <polyline stroke-linejoin="miter" fill="none" stroke-linecap="square" stroke-width="0.5" stroke="#ff0000" points="161.16,299.46 167.16,293.46"/>
   <polyline stroke-linejoin="miter" fill="none" stroke-linecap="square" stroke-width="0.5" stroke="#ff0000" points="170.088,293.46 176.088,299.46"/>
   <polyline stroke-linejoin="miter" fill="none" stroke-linecap="square" stroke-width="0.5" stroke="#ff0000" points="170.088,299.46 176.088,293.46"/>
   <polyline stroke-linejoin="miter" fill="none" stroke-linecap="square" stroke-width="0.5" stroke="#ff0000" points="179.016,293.46 185.016,299.46"/>
   <polyline stroke-linejoin="miter" fill="none" stroke-linecap="square" stroke-width="0.5" stroke="#ff0000" points="179.016,299.46 185.016,293.46"/>
   <polyline stroke-linejoin="miter" fill="none" stroke-linecap="square" stroke-width="0.5" stroke="#ff0000" points="187.944,293.46 193.944,299.46"/>
   <polyline stroke-linejoin="miter" fill="none" stroke-linecap="square" stroke-width="0.5" stroke="#ff0000" points="187.944,299.46 193.944,293.46"/>
   <polyline stroke-linejoin="miter" fill="none" stroke-linecap="square" stroke-width="0.5" stroke="#ff0000" points="196.872,293.46 202.872,299.46"/>
   <polyline stroke-linejoin="miter" fill="none" stroke-linecap="square" stroke-width="0.5" stroke="#ff0000" points="196.872,299.46 202.872,293.46"/>
   <polyline stroke-linejoin="miter" fill="none" stroke-linecap="square" stroke-width="0.5" stroke="#ff0000" points="205.8,293.46 211.8,299.46"/>
   <polyline stroke-linejoin="miter" fill="none" stroke-linecap="square" stroke-width="0.5" stroke="#ff0000" points="205.8,299.46 211.8,293.46"/>
   <polyline stroke-linejoin="miter" fill="none" stroke-linecap="square" stroke-width="0.5" stroke="#ff0000" points="214.728,293.46 220.728,299.46"/>
   <polyline stroke-linejoin="miter" fill="none" stroke-linecap="square" stroke-width="0.5" stroke="#ff0000" points="214.728,299.46 220.728,293.46"/>
   <polyline stroke-linejoin="miter" fill="none" stroke-linecap="square" stroke-width="0.5" stroke="#ff0000" points="223.656,293.46 229.656,299.46"/>
   <polyline stroke-linejoin="miter" fill="none" stroke-linecap="square" stroke-width="0.5" stroke="#ff0000" points="223.656,299.46 229.656,293.46"/>
   <polyline stroke-linejoin="miter" fill="none" stroke-linecap="square" stroke-width="0.5" stroke="#ff0000" points="232.584,293.46 238.584,299.46"/>
   <polyline stroke-linejoin="miter" fill="none" stroke-linecap="square" stroke-width="0.5" stroke="#ff0000" points="232.584,299.46 238.584,293.46"/>
   <polyline stroke-linejoin="miter" fill="none" stroke-linecap="square" stroke-width="0.5" stroke="#ff0000" points="241.512,293.46 247.512,299.46"/>
   <polyline stroke-linejoin="miter" fill="none" stroke-linecap="square" stroke-width="0.5" stroke="#ff0000" points="241.512,299.46 247.512,293.46"/>
   <polyline stroke-linejoin="miter" fill="none" stroke-linecap="square" stroke-width="0.5" stroke="#ff0000" points="250.44,293.46 256.44,299.46"/>
   <polyline stroke-linejoin="miter" fill="none" stroke-linecap="square" stroke-width="0.5" stroke="#ff0000" points="250.44,299.46 256.44,293.46"/>
   <polyline stroke-linejoin="miter" fill="none" stroke-linecap="square" stroke-width="0.5" stroke="#ff0000" points="259.368,293.46 265.368,299.46"/>
   <polyline stroke-linejoin="miter" fill="none" stroke-linecap="square" stroke-width="0.5" stroke="#ff0000" points="259.368,299.46 265.368,293.46"/>
   <polyline stroke-linejoin="miter" fill="none" stroke-linecap="square" stroke-width="0.5" stroke="#ff0000" points="268.296,293.46 274.296,299.46"/>
   <polyline stroke-linejoin="miter" fill="none" stroke-linecap="square" stroke-width="0.5" stroke="#ff0000" points="268.296,299.46 274.296,293.46"/>
   <polyline stroke-linejoin="miter" fill="none" stroke-linecap="square" stroke-width="0.5" stroke="#ff0000" points="277.224,117.42 283.224,123.42"/>
   <polyline stroke-linejoin="miter" fill="none" stroke-linecap="square" stroke-width="0.5" stroke="#ff0000" points="277.224,123.42 283.224,117.42"/>
   <polyline stroke-linejoin="miter" fill="none" stroke-linecap="square" stroke-width="0.5" stroke="#ff0000" points="286.152,117.42 292.152,123.42"/>
   <polyline stroke-linejoin="miter" fill="none" stroke-linecap="square" stroke-width="0.5" stroke="#ff0000" points="286.152,123.42 292.152,117.42"/>
   <polyline stroke-linejoin="miter" fill="none" stroke-linecap="square" stroke-width="0.5" stroke="#ff0000" points="295.08,117.42 301.08,123.42"/>
   <polyline stroke-linejoin="miter" fill="none" stroke-linecap="square" stroke-width="0.5" stroke="#ff0000" points="295.08,123.42 301.08,117.42"/>
   <polyline stroke-linejoin="miter" fill="none" stroke-linecap="square" stroke-width="0.5" stroke="#ff0000" points="304.008,117.42 310.008,123.42"/>
   <polyline stroke-linejoin="miter" fill="none" stroke-linecap="square" stroke-width="0.5" stroke="#ff0000" points="304.008,123.42 310.008,117.42"/>
   <polyline stroke-linejoin="miter" fill="none" stroke-linecap="square" stroke-width="0.5" stroke="#ff0000" points="312.936,117.42 318.936,123.42"/>
   <polyline stroke-linejoin="miter" fill="none" stroke-linecap="square" stroke-width="0.5" stroke="#ff0000" points="312.936,123.42 318.936,117.42"/>
   <polyline stroke-linejoin="miter" fill="none" stroke-linecap="square" stroke-width="0.5" stroke="#ff0000" points="321.864,293.46 327.864,299.46"/>
   <polyline stroke-linejoin="miter" fill="none" stroke-linecap="square" stroke-width="0.5" stroke="#ff0000" points="321.864,299.46 327.864,293.46"/>
   <polyline stroke-linejoin="miter" fill="none" stroke-linecap="square" stroke-width="0.5" stroke="#ff0000" points="330.792,293.46 336.792,299.46"/>
   <polyline stroke-linejoin="miter" fill="none" stroke-linecap="square" stroke-width="0.5" stroke="#ff0000" points="330.792,299.46 336.792,293.46"/>
   <polyline stroke-linejoin="miter" fill="none" stroke-linecap="square" stroke-width="0.5" stroke="#ff0000" points="339.72,293.46 345.72,299.46"/>
   <polyline stroke-linejoin="miter" fill="none" stroke-linecap="square" stroke-width="0.5" stroke="#ff0000" points="339.72,299.46 345.72,293.46"/>
   <polyline stroke-linejoin="miter" fill="none" stroke-linecap="square" stroke-width="0.5" stroke="#ff0000" points="348.648,293.46 354.648,299.46"/>
   <polyline stroke-linejoin="miter" fill="none" stroke-linecap="square" stroke-width="0.5" stroke="#ff0000" points="348.648,299.46 354.648,293.46"/>
   <polyline stroke-linejoin="miter" fill="none" stroke-linecap="square" stroke-width="0.5" stroke="#ff0000" points="357.576,293.46 363.576,299.46"/>
   <polyline stroke-linejoin="miter" fill="none" stroke-linecap="square" stroke-width="0.5" stroke="#ff0000" points="357.576,299.46 363.576,293.46"/>
   <polyline stroke-linejoin="miter" fill="none" stroke-linecap="square" stroke-width="0.5" stroke="#ff0000" points="366.504,117.42 372.504,123.42"/>
   <polyline stroke-linejoin="miter" fill="none" stroke-linecap="square" stroke-width="0.5" stroke="#ff0000" points="366.504,123.42 372.504,117.42"/>
   <polyline stroke-linejoin="miter" fill="none" stroke-linecap="square" stroke-width="0.5" stroke="#ff0000" points="375.432,117.42 381.432,123.42"/>
   <polyline stroke-linejoin="miter" fill="none" stroke-linecap="square" stroke-width="0.5" stroke="#ff0000" points="375.432,123.42 381.432,117.42"/>
   <polyline stroke-linejoin="miter" fill="none" stroke-linecap="square" stroke-width="0.5" stroke="#ff0000" points="384.36,117.42 390.36,123.42"/>
   <polyline stroke-linejoin="miter" fill="none" stroke-linecap="square" stroke-width="0.5" stroke="#ff0000" points="384.36,123.42 390.36,117.42"/>
   <polyline stroke-linejoin="miter" fill="none" stroke-linecap="square" stroke-width="0.5" stroke="#ff0000" points="393.288,117.42 399.288,123.42"/>
   <polyline stroke-linejoin="miter" fill="none" stroke-linecap="square" stroke-width="0.5" stroke="#ff0000" points="393.288,123.42 399.288,117.42"/>
   <polyline stroke-linejoin="miter" fill="none" stroke-linecap="square" stroke-width="0.5" stroke="#ff0000" points="402.216,117.42 408.216,123.42"/>
   <polyline stroke-linejoin="miter" fill="none" stroke-linecap="square" stroke-width="0.5" stroke="#ff0000" points="402.216,123.42 408.216,117.42"/>
   <polyline stroke-linejoin="miter" fill="none" stroke-linecap="square" stroke-width="0.5" stroke="#ff0000" points="411.144,293.46 417.144,299.46"/>
   <polyline stroke-linejoin="miter" fill="none" stroke-linecap="square" stroke-width="0.5" stroke="#ff0000" points="411.144,299.46 417.144,293.46"/>
   <polyline stroke-linejoin="miter" fill="none" stroke-linecap="square" stroke-width="0.5" stroke="#ff0000" points="420.072,293.46 426.072,299.46"/>
   <polyline stroke-linejoin="miter" fill="none" stroke-linecap="square" stroke-width="0.5" stroke="#ff0000" points="420.072,299.46 426.072,293.46"/>
   <polyline stroke-linejoin="miter" fill="none" stroke-linecap="square" stroke-width="0.5" stroke="#ff0000" points="429,293.46 435,299.46"/>
   <polyline stroke-linejoin="miter" fill="none" stroke-linecap="square" stroke-width="0.5" stroke="#ff0000" points="429,299.46 435,293.46"/>
   <polyline stroke-linejoin="miter" fill="none" stroke-linecap="square" stroke-width="0.5" stroke="#ff0000" points="437.928,293.46 443.928,299.46"/>
   <polyline stroke-linejoin="miter" fill="none" stroke-linecap="square" stroke-width="0.5" stroke="#ff0000" points="437.928,299.46 443.928,293.46"/>
   <polyline stroke-linejoin="miter" fill="none" stroke-linecap="square" stroke-width="0.5" stroke="#ff0000" points="446.856,293.46 452.856,299.46"/>
   <polyline stroke-linejoin="miter" fill="none" stroke-linecap="square" stroke-width="0.5" stroke="#ff0000" points="446.856,299.46 452.856,293.46"/>
   <polyline stroke-linejoin="miter" fill="none" stroke-linecap="square" stroke-width="0.5" stroke="#ff0000" points="455.784,117.42 461.784,123.42"/>
   <polyline stroke-linejoin="miter" fill="none" stroke-linecap="square" stroke-width="0.5" stroke="#ff0000" points="455.784,123.42 461.784,117.42"/>
   <polyline stroke-linejoin="miter" fill="none" stroke-linecap="square" stroke-width="0.5" stroke="#ff0000" points="464.712,117.42 470.712,123.42"/>
   <polyline stroke-linejoin="miter" fill="none" stroke-linecap="square" stroke-width="0.5" stroke="#ff0000" points="464.712,123.42 470.712,117.42"/>
   <polyline stroke-linejoin="miter" fill="none" stroke-linecap="square" stroke-width="0.5" stroke="#ff0000" points="473.64,117.42 479.64,123.42"/>
   <polyline stroke-linejoin="miter" fill="none" stroke-linecap="square" stroke-width="0.5" stroke="#ff0000" points="473.64,123.42 479.64,117.42"/>
   <polyline stroke-linejoin="miter" fill="none" stroke-linecap="square" stroke-width="0.5" stroke="#ff0000" points="482.568,117.42 488.568,123.42"/>
   <polyline stroke-linejoin="miter" fill="none" stroke-linecap="square" stroke-width="0.5" stroke="#ff0000" points="482.568,123.42 488.568,117.42"/>
   <polyline stroke-linejoin="miter" fill="none" stroke-linecap="square" stroke-width="0.5" stroke="#ff0000" points="491.496,117.42 497.496,123.42"/>
   <polyline stroke-linejoin="miter" fill="none" stroke-linecap="square" stroke-width="0.5" stroke="#ff0000" points="491.496,123.42 497.496,117.42"/>
   <polyline stroke-linejoin="miter" fill="none" stroke-linecap="square" stroke-width="0.5" stroke="#ff0000" points="500.424,293.46 506.424,299.46"/>
   <polyline stroke-linejoin="miter" fill="none" stroke-linecap="square" stroke-width="0.5" stroke="#ff0000" points="500.424,299.46 506.424,293.46"/>
   <polyline stroke-linejoin="miter" fill="none" stroke-linecap="square" stroke-width="0.5" stroke="#ff0000" points="509.352,293.46 515.352,299.46"/>
   <polyline stroke-linejoin="miter" fill="none" stroke-linecap="square" stroke-width="0.5" stroke="#ff0000" points="509.352,299.46 515.352,293.46"/>
   <polyline stroke-linejoin="miter" fill="none" stroke-linecap="square" stroke-width="0.5" stroke="#ff0000" points="518.28,293.46 524.28,299.46"/>
   <polyline stroke-linejoin="miter" fill="none" stroke-linecap="square" stroke-width="0.5" stroke="#ff0000" points="518.28,299.46 524.28,293.46"/>
   <polyline stroke-linejoin="round" fill="none" stroke-linecap="butt" stroke-width="0.5" stroke="#0000ff" points="74.8799,120.42 75.3267,113.291 75.7734,106.936 76.2207,101.405 76.6675,96.7349 77.1143,92.9492 77.561,90.0581 78.0078,88.0601 78.4546,86.9375 78.9014,86.6621 79.3486,87.1904 79.7954,88.4688 80.2422,90.4321 80.689,93.0063 81.1357,96.1074 81.5825,99.646 82.0293,103.528 82.4766,107.653 82.9233,111.924 83.3701,116.24 83.8169,120.504 84.2637,124.624 84.7104,128.511 85.1572,132.085 85.6045,135.276 86.0513,138.022 86.498,140.273 86.9448,141.99 87.3916,143.147 87.8384,143.73 88.2856,143.741 88.7324,143.19 89.1792,142.103 89.626,140.515 90.0728,138.473 90.5195,136.033 90.9663,133.257 91.4131,130.219 91.8604,126.991 92.3071,123.653 92.7539,120.286 93.2007,116.968 93.6475,113.777 94.0942,110.787 94.541,108.066 94.9883,105.675 95.4351,103.668 95.8818,102.088 96.3286,100.969 96.7754,100.332 97.2222,100.189 97.6689,100.541 98.1162,101.373 98.563,102.663 99.0098,104.377 99.4565,106.473 99.9033,108.897 100.35,111.59 100.797,114.486 101.244,117.516 101.691,120.606 102.138,123.681 102.584,126.669 103.031,129.497 103.478,132.098 103.925,134.41 104.372,136.378 104.819,137.955 105.266,139.102 105.712,139.792 106.159,140.009 106.606,139.747 107.053,139.011 107.5,137.818 107.947,136.196 108.394,134.183 108.84,131.826 109.287,129.181 109.734,126.311 110.181,123.283 110.628,120.169 111.075,117.046 111.521,113.987 111.968,111.067 112.415,108.357 112.862,105.924 113.309,103.829 113.756,102.124 114.203,100.854 114.649,100.052 115.096,99.7441 115.543,99.9414 115.99,100.644 116.437,101.839 116.884,103.506 117.331,105.609 117.777,108.103 118.224,110.932 118.671,114.034 119.118,117.337 119.564,120.766 120.012,124.241 120.458,127.678 120.905,130.994 121.352,134.109 121.799,136.945 122.246,139.428 122.692,141.492 123.14,143.08 123.586,144.145 124.033,144.648 124.48,144.566 124.927,143.888 125.374,142.613 125.82,140.758 126.268,138.351 126.714,135.433 127.161,132.057 127.608,128.29 128.055,124.207 128.501,119.893 128.948,115.44 129.396,110.948 129.842,106.517 130.289,102.251 130.736,98.2563 131.183,94.6343 131.629,91.4834 132.076,88.897 132.523,86.9595 132.97,85.748 133.417,85.3271 133.864,85.7515 134.311,87.061 134.757,89.2832 135.204,92.4312 135.651,96.5034 136.098,101.484 136.545,107.343 136.992,114.038 137.438,121.511 137.885,129.695 138.332,138.513 138.779,147.876 139.226,157.692 139.673,167.858 140.12,178.272 140.566,188.828 141.013,199.418 141.46,209.938 141.907,220.287 142.354,230.367 142.801,240.089 143.248,249.371 143.694,258.138 144.141,266.329 144.588,273.888 145.035,280.776 145.482,286.963 145.929,292.43 146.375,297.169 146.822,301.188 147.269,304.499 147.716,307.127 148.163,309.107 148.61,310.479 149.057,311.294 149.503,311.604 149.95,311.466 150.397,310.943 150.844,310.096 151.291,308.987 151.738,307.679 152.185,306.231 152.631,304.698 153.078,303.133 153.525,301.583 153.972,300.089 154.419,298.687 154.866,297.405 155.312,296.267 155.759,295.287 156.206,294.477 156.653,293.84 157.1,293.374 157.547,293.072 157.994,292.923 158.44,292.913 158.887,293.022 159.334,293.231 159.781,293.52 160.228,293.865 160.675,294.245 161.122,294.639 161.568,295.028 162.015,295.395 162.462,295.724 162.909,296.003 163.355,296.225 163.803,296.382 164.25,296.473 164.696,296.498 165.143,296.461 165.59,296.369 166.037,296.229 166.483,296.053 166.931,295.853 167.377,295.642 167.824,295.433 168.271,295.239 168.718,295.074 169.165,294.949 169.611,294.874 170.059,294.857 170.505,294.905 170.952,295.02 171.399,295.204 171.846,295.455 172.292,295.769 172.739,296.139 173.187,296.555 173.633,297.006 174.08,297.48 174.527,297.962 174.974,298.436 175.42,298.888 175.867,299.301 176.314,299.661 176.761,299.954 177.208,300.168 177.655,300.292 178.102,300.319 178.548,300.244 178.995,300.062 179.442,299.777 179.889,299.391 180.336,298.911 180.783,298.346 181.229,297.709 181.676,297.016 182.123,296.281 182.57,295.524 183.017,294.766 183.464,294.025 183.911,293.323 184.357,292.679 184.804,292.113 185.251,291.641 185.698,291.278 186.145,291.038 186.592,290.929 187.039,290.958 187.485,291.128 187.932,291.439 188.379,291.885 188.826,292.459 189.273,293.148 189.72,293.937 190.167,294.809 190.613,295.743 191.06,296.715 191.507,297.703 191.954,298.681 192.401,299.624 192.848,300.507 193.294,301.306 193.741,301.999 194.188,302.566 194.635,302.992 195.082,303.261 195.529,303.364 195.976,303.296 196.422,303.055 196.869,302.644 197.316,302.071 197.763,301.346 198.21,300.486 198.657,299.511 199.104,298.442 199.55,297.305 199.997,296.128 200.444,294.939 200.891,293.77 201.338,292.647 201.785,291.603 202.231,290.663 202.678,289.853 203.125,289.195 203.572,288.708 204.019,288.408 204.466,288.305 204.913,288.403 205.359,288.704 205.806,289.203 206.253,289.89 206.7,290.752 207.146,291.769 207.594,292.918 208.041,294.172 208.487,295.501 208.934,296.875 209.381,298.256 209.828,299.614 210.274,300.912 210.722,302.117 211.168,303.199 211.615,304.127 212.062,304.878 212.509,305.43 212.956,305.766 213.402,305.875 213.85,305.751 214.296,305.394 214.743,304.809 215.19,304.009 215.637,303.009 216.083,301.833 216.53,300.506 216.978,299.06 217.424,297.53 217.871,295.952 218.318,294.365 218.765,292.809 219.211,291.322 219.658,289.942 220.105,288.705 220.552,287.645 220.999,286.789 221.446,286.162 221.893,285.782 222.339,285.663 222.786,285.811 223.233,286.226 223.68,286.901 224.127,287.824 224.574,288.974 225.021,290.327 225.467,291.851 225.914,293.511 226.361,295.268 226.808,297.08 227.255,298.901 227.702,300.688 228.148,302.396 228.595,303.981 229.042,305.401 229.489,306.62 229.936,307.604 230.383,308.325 230.83,308.761 231.276,308.898 231.723,308.728 232.17,308.25 232.617,307.472 233.064,306.408 233.511,305.08 233.958,303.518 234.404,301.756 234.851,299.835 235.298,297.8 235.745,295.7 236.192,293.585 236.639,291.508 237.085,289.521 237.532,287.674 237.979,286.015 238.426,284.589 238.873,283.435 239.32,282.585 239.767,282.066 240.213,281.896 240.66,282.085 241.107,282.636 241.554,283.54 242,284.782 242.448,286.336 242.895,288.171 243.341,290.245 243.788,292.513 244.235,294.921 244.682,297.413 245.128,299.93 245.576,302.408 246.022,304.788 246.469,307.007 246.916,309.009 247.363,310.74 247.81,312.151 248.256,313.201 248.704,313.856 249.15,314.092 249.597,313.895 250.044,313.259 250.491,312.19 250.938,310.705 251.384,308.831 251.832,306.604 252.278,304.069 252.725,301.284 253.172,298.309 253.619,295.211 254.065,292.064 254.512,288.944 254.959,285.926 255.406,283.088 255.853,280.504 256.3,278.243 256.747,276.37 257.193,274.942 257.64,274.007 258.087,273.603 258.534,273.755 258.981,274.479 259.428,275.776 259.875,277.634 260.321,280.028 260.768,282.92 261.215,286.258 261.662,289.98 262.109,294.012 262.556,298.271 263.002,302.664 263.449,307.094 263.896,311.458 264.343,315.65 264.79,319.565 265.237,323.099 265.684,326.148 266.13,328.62 266.577,330.425 267.024,331.484 267.471,331.73 267.918,331.108 268.365,329.574 268.812,327.102 269.258,323.678 269.705,319.306 270.152,314.003 270.599,307.804 271.046,300.755 271.493,292.919 271.939,284.371 272.386,275.193 272.833,265.483 273.28,255.344 273.727,244.883 274.174,234.213 274.621,223.45 275.067,212.708 275.514,202.097 275.961,191.727 276.408,181.699 276.855,172.105 277.302,163.032 277.749,154.551 278.195,146.723 278.642,139.599 279.089,133.212 279.536,127.584 279.983,122.726 280.43,118.63 280.876,115.28 281.323,112.646 281.77,110.688 282.217,109.358 282.664,108.596 283.111,108.34 283.558,108.519 284.004,109.063 284.451,109.897 284.898,110.949 285.345,112.147 285.792,113.425 286.239,114.72 286.686,115.975 287.132,117.142 287.579,118.18 288.026,119.056 288.473,119.749 288.919,120.243 289.367,120.535 289.813,120.628 290.26,120.536 290.707,120.278 291.154,119.879 291.601,119.371 292.047,118.79 292.495,118.174 292.941,117.562 293.388,116.992 293.835,116.504 294.282,116.133 294.729,115.909 295.175,115.857 295.623,115.999 296.069,116.346 296.516,116.904 296.963,117.672 297.41,118.638 297.856,119.786 298.303,121.089 298.75,122.518 299.197,124.031 299.644,125.588 300.091,127.142 300.538,128.641 300.984,130.035 301.431,131.274 301.878,132.309 302.325,133.093 302.772,133.585 303.219,133.75 303.666,133.558 304.112,132.991 304.559,132.037 305.006,130.694 305.453,128.974 305.9,126.896 306.347,124.49 306.793,121.799 307.24,118.873 307.687,115.772 308.134,112.566 308.581,109.331 309.028,106.146 309.475,103.098 309.921,100.273 310.368,97.7617 310.815,95.6494 311.262,94.021 311.709,92.9551 312.156,92.5244 312.603,92.7935 313.049,93.8174 313.496,95.6401 313.943,98.293 314.39,101.794 314.837,106.151 315.284,111.354 315.73,117.38 316.177,124.195 316.624,131.749 317.071,139.98 317.518,148.816 317.965,158.174 318.412,167.964 318.858,178.086 319.305,188.438 319.752,198.914 320.199,209.404 320.646,219.802 321.093,230.004 321.54,239.909 321.986,249.423 322.433,258.46 322.88,266.944 323.327,274.807 323.773,281.994 324.221,288.463 324.667,294.185 325.114,299.141 325.561,303.329 326.008,306.756 326.455,309.444 326.902,311.425 327.349,312.74 327.795,313.441 328.242,313.587 328.689,313.244 329.136,312.479 329.583,311.365 330.03,309.977 330.477,308.386 330.923,306.664 331.37,304.878 331.817,303.091 332.264,301.359 332.71,299.732 333.157,298.25 333.604,296.948 334.051,295.848 334.498,294.966 334.945,294.309 335.392,293.874 335.838,293.651 336.286,293.624 336.732,293.768 337.179,294.056 337.626,294.454 338.073,294.928 338.52,295.441 338.966,295.956 339.413,296.438 339.86,296.854 340.307,297.173 340.754,297.373 341.201,297.432 341.647,297.337 342.094,297.083 342.542,296.669 342.988,296.103 343.435,295.398 343.882,294.577 344.329,293.665 344.775,292.694 345.222,291.701 345.669,290.726 346.116,289.809 346.563,288.993 347.01,288.319 347.457,287.829 347.903,287.557 348.35,287.536 348.797,287.792 349.244,288.343 349.691,289.202 350.138,290.372 350.584,291.845 351.031,293.606 351.478,295.629 351.925,297.88 352.372,300.313 352.819,302.877 353.266,305.511 353.712,308.147 354.159,310.712 354.606,313.13 355.053,315.322 355.5,317.206 355.947,318.703 356.394,319.735 356.84,320.229 357.287,320.119 357.734,319.344 358.181,317.852 358.628,315.603 359.075,312.566 359.521,308.724 359.968,304.072 360.415,298.617 360.862,292.38 361.309,285.396 361.756,277.713 362.203,269.388 362.649,260.491 363.096,251.103 363.543,241.311 363.99,231.211 364.437,220.905 364.884,210.494 365.331,200.086 365.777,189.786 366.224,179.696 366.671,169.917 367.118,160.54 367.565,151.653 368.012,143.332 368.458,135.644 368.905,128.645 369.352,122.378 369.799,116.875 370.246,112.152 370.692,108.216 371.14,105.058 371.586,102.659 372.033,100.987 372.48,100.001 372.927,99.6479 373.374,99.8696 373.82,100.6 374.268,101.768 374.714,103.298 375.161,105.116 375.608,107.144 376.055,109.309 376.501,111.538 376.948,113.765 377.396,115.929 377.842,117.976 378.289,119.858 378.736,121.54 379.183,122.989 379.629,124.188 380.076,125.125 380.523,125.798 380.97,126.214 381.417,126.386 381.864,126.336 382.311,126.091 382.757,125.683 383.204,125.145 383.651,124.517 384.098,123.836 384.545,123.14 384.992,122.466 385.438,121.847 385.885,121.312 386.332,120.888 386.779,120.592 387.226,120.438 387.673,120.431 388.12,120.573 388.566,120.854 389.013,121.262 389.46,121.776 389.907,122.372 390.354,123.019 390.801,123.683 391.248,124.327 391.694,124.915 392.141,125.407 392.588,125.768 393.035,125.963 393.482,125.962 393.929,125.739 394.375,125.274 394.822,124.555 395.269,123.578 395.716,122.347 396.163,120.873 396.61,119.18 397.057,117.298 397.503,115.266 397.95,113.133 398.397,110.955 398.844,108.792 399.291,106.714 399.738,104.792 400.185,103.1 400.631,101.714 401.078,100.71 401.525,100.162 401.972,100.138 402.419,100.702 402.866,101.912 403.312,103.817 403.759,106.456 404.206,109.857 404.653,114.038 405.1,119.002 405.547,124.741 405.994,131.233 406.44,138.445 406.887,146.33 407.334,154.828 407.781,163.87 408.228,173.378 408.675,183.262 409.122,193.428 409.568,203.775 410.015,214.199 410.462,224.595 410.909,234.856 411.355,244.88 411.803,254.567 412.25,263.823 412.696,272.561 413.143,280.705 413.59,288.186 414.037,294.949 414.483,300.95 414.931,306.159 415.377,310.557 415.824,314.141 416.271,316.918 416.718,318.911 417.165,320.152 417.611,320.687 418.059,320.568 418.505,319.859 418.952,318.629 419.399,316.954 419.846,314.911 420.292,312.583 420.739,310.05 421.187,307.393 421.633,304.687 422.08,302.005 422.527,299.413 422.974,296.972 423.42,294.731 423.867,292.735 424.314,291.015 424.761,289.595 425.208,288.49 425.655,287.703 426.102,287.228 426.548,287.054 426.995,287.158 427.442,287.512 427.889,288.083 428.336,288.833 428.783,289.721 429.229,290.704 429.676,291.739 430.123,292.785 430.57,293.8 431.017,294.75 431.464,295.603 431.911,296.331 432.357,296.916 432.804,297.343 433.251,297.606 433.698,297.707 434.145,297.651 434.592,297.455 435.039,297.138 435.485,296.725 435.932,296.247 436.379,295.738 436.826,295.233 437.273,294.77 437.72,294.384 438.167,294.111 438.613,293.983 439.06,294.027 439.507,294.267 439.954,294.717 440.401,295.387 440.848,296.277 441.294,297.379 441.741,298.678 442.188,300.146 442.635,301.75 443.082,303.446 443.529,305.184 443.976,306.906 444.422,308.55 444.869,310.046 445.316,311.323 445.763,312.31 446.21,312.931 446.657,313.115 447.104,312.795 447.55,311.906 447.997,310.392 448.444,308.202 448.891,305.297 449.338,301.648 449.785,297.237 450.231,292.058 450.678,286.117 451.125,279.436 451.572,272.046 452.019,263.995 452.466,255.34 452.913,246.149 453.359,236.504 453.806,226.492 454.253,216.209 454.7,205.758 455.146,195.244 455.593,184.774 456.041,174.459 456.487,164.404 456.934,154.711 457.381,145.479 457.828,136.795 458.274,128.742 458.722,121.39 459.168,114.797 459.615,109.009 460.062,104.06 460.509,99.9673 460.956,96.7363 461.402,94.3579 461.85,92.8096 462.296,92.0557 462.743,92.0493 463.19,92.7314 463.637,94.0352 464.083,95.8853 464.53,98.1992 464.978,100.892 465.424,103.873 465.871,107.054 466.318,110.346 466.765,113.664 467.211,116.925 467.658,120.056 468.105,122.989 468.552,125.664 468.999,128.031 469.446,130.051 469.893,131.696 470.339,132.948 470.786,133.799 471.233,134.254 471.68,134.327 472.127,134.039 472.574,133.421 473.021,132.512 473.467,131.356 473.914,130.001 474.361,128.498 474.808,126.899 475.255,125.257 475.702,123.622 476.148,122.042 476.595,120.561 477.042,119.217 477.489,118.041 477.936,117.059 478.383,116.287 478.83,115.734 479.276,115.401 479.723,115.283 480.17,115.364 480.617,115.623 481.064,116.033 481.511,116.562 481.958,117.174 482.404,117.829 482.851,118.487 483.298,119.108 483.745,119.653 484.192,120.087 484.639,120.378 485.085,120.5 485.532,120.434 485.979,120.167 486.426,119.698 486.873,119.031 487.32,118.181 487.767,117.172 488.213,116.038 488.66,114.821 489.107,113.571 489.554,112.347 490,111.211 490.448,110.233 490.895,109.484 491.341,109.038 491.788,108.97 492.235,109.35 492.682,110.249 493.128,111.729 493.576,113.848 494.022,116.653 494.469,120.185 494.916,124.469 495.363,129.521 495.81,135.345 496.257,141.929 496.704,149.248 497.15,157.263 497.597,165.924 498.044,175.166 498.491,184.912 498.938,195.075 499.384,205.559 499.832,216.259 500.278,227.066 500.725,237.866 501.172,248.542 501.619,258.979 502.065,269.062 502.512,278.684 502.959,287.741 503.406,296.139 503.853,303.794 504.3,310.633 504.747,316.598 505.193,321.643 505.64,325.737 506.087,328.866 506.534,331.032 506.981,332.251 507.428,332.556 507.875,331.992 508.321,330.62 508.769,328.512 509.215,325.751 509.662,322.43 510.109,318.648 510.556,314.51 511.002,310.123 511.449,305.596 511.896,301.036 512.343,296.548 512.79,292.231 513.237,288.178 513.684,284.47 514.13,281.181 514.577,278.373 515.024,276.093 515.471,274.378 515.918,273.25 516.365,272.717 516.812,272.773 517.258,273.4 517.705,274.567 518.152,276.231 518.599,278.339 519.046,280.83 519.493,283.635 519.939,286.68 520.386,289.885 520.833,293.172 521.28,296.46"/>
  </g>
  <clipPath id="cp00576432">
   <polygon points="0,432 576,432 576,0 0,0"/>
  </clipPath>
  <g clip-path="url(#cp00576432)">
   <polygon fill="#ffffff" points="371.141,90.6641 510.317,90.6641 510.317,43.3628 371.141,43.3628" shape-rendering="crispEdges"/>
   <polyline stroke-linejoin="miter" fill="none" stroke-linecap="square" stroke-dasharray="16,0" stroke-width="0.5" stroke="#262626" points="371.141,90.6641 510.317,90.6641"/>
   <polyline stroke-linejoin="miter" fill="none" stroke-linecap="square" stroke-dasharray="16,0" stroke-width="0.5" stroke="#262626" points="371.141,43.3628 510.317,43.3628"/>
   <polyline stroke-linejoin="miter" fill="none" stroke-linecap="square" stroke-dasharray="16,0" stroke-width="0.5" stroke="#262626" points="371.141,90.6641 371.141,43.3628"/>
   <polyline stroke-linejoin="miter" fill="none" stroke-linecap="square" stroke-dasharray="16,0" stroke-width="0.5" stroke="#262626" points="510.317,90.6641 510.317,43.3628"/>
   <text xml:space="preserve" font-size="9" font-family="FreeSans" font-weight="normal" transform="translate(398.091,56.2464) rotate(-0,-0,-5)" font-style="normal">
    <tspan x="0 7 10 12 17 19 24 29 31 33 38 43 48 50 55 60 62 66 68 73 78 83 " y="-2" fill="rgb(0,0,0)">Original analog signal</tspan>
   </text>
   <text xml:space="preserve" font-size="9" font-family="FreeSans" font-weight="normal" transform="translate(398.091,72.0135) rotate(-0,-0,-5)" font-style="normal">
    <tspan x="0 6 11 18 23 25 30 35 37 42 44 49 51 54 59 61 63 67 69 74 79 84 " y="-2" fill="rgb(0,0,0)">Sampled digital signal</tspan>
   </text>
   <text xml:space="preserve" font-size="9" font-family="FreeSans" font-weight="normal" transform="translate(398.091,87.7806) rotate(-0,-0,-5)" font-style="normal">
    <tspan x="0 6 11 14 19 22 27 32 37 42 47 52 54 59 64 69 71 76 81 83 87 89 94 99 104 " y="-2" fill="rgb(0,0,0)">Rerproduced analog signal</tspan>
   </text>
   <polyline stroke-linejoin="round" fill="none" stroke-linecap="butt" stroke-width="0.5" stroke="#ff0000" points="374.338,51.2466 394.894,51.2466"/>
   <polyline stroke-linejoin="miter" fill="none" stroke-linecap="square" stroke-width="0.5" stroke="#ff0000" points="381.616,64.0137 387.616,70.0137"/>
   <polyline stroke-linejoin="miter" fill="none" stroke-linecap="square" stroke-width="0.5" stroke="#ff0000" points="381.616,70.0137 387.616,64.0137"/>
   <polyline stroke-linejoin="round" fill="none" stroke-linecap="butt" stroke-width="0.5" stroke="#0000ff" points="374.338,82.7808 394.894,82.7808"/>
  </g>
 </g>
</svg>
